{"title":"Not Safe for Work 2014 BluRay 1080p x264 AC3 HDWinG DUAL ASM","uid":10221895,"size":8892903060,"categoryP":"video","categoryS":"hd___movies","magnet":"?xt=urn:btih:63ef15286d7d43277962c770c00c8b9aa0acf3ba&amp;dn=Not+Safe+for+Work+2014+BluRay+1080p+x264+AC3+HDWinG+DUAL+ASM&amp;tr=udp%3A%2F%2Ftracker.openbittorrent.com%3A80&amp;tr=udp%3A%2F%2Fopen.demonii.com%3A1337&amp;tr=udp%3A%2F%2Ftracker.coppersurfer.tk%3A6969&amp;tr=udp%3A%2F%2Fexodus.desync.com%3A6969","seeders":0,"leechers":0,"uploader":"Alemao99","files":5,"time":1401054201,"description":"From the director of Captain America : The First Avenger and The Wolfman comes a psychological thriller about an unsuspecting employee, Tom Miller ( Max Minghella , The Social Network ) , who finds himself stuck in the office building where he works with a deranged killer ( JJ Feild , Captain America : The First Avenger ) . While running to protect employees working late, Tom soon discovers that his law firm hides sinister secrets that could endanger thousands of lives . From the same producer of Paranormal Activity and Supernatural , and there comes a terrifying psychological thriller , where an ordinary office becomes a wicked deadly territory.\n\nTitle in Brazil : Business Mortals\nOriginal title : Not Safe for Work\nDirector : Joe Johnston\nDuration : 1h : 14min\nPremiere in Brazil : 2014\nGenre : Thriller\nIMDB: http://www.imdb.com/title/tt2226495/\n\nSize : 8.28 GB\nResolution: 1920 x 1038\nQuality : Bluray\nVideo Codec : H.264 / AVC\nAudio Codec : AC3\nFile extension MKV\nLanguage : Portuguese / English\nCaption : Portuguese\n\nFormat                                   : Matroska\nFormat version                           : Version 2\nFile size                                : 8.28 GiB\nDuration                                 : 1h 14mn\nOverall bit rate                         : 16.0 Mbps\nEncoded date                             : UTC 2014-05-23 11:38:13\nWriting application                      : mkvmerge v4.0.0 ('The Stars were mine') built on Jun  6 2010 16:18:42\nWriting library                          : libebml v1.0.0 + libmatroska v1.0.0\n\nVideo\nID                                       : 1\nFormat                                   : AVC\nFormat/Info                              : Advanced Video Codec\nFormat profile                           : &lt;a class=&quot;__cf_email__&quot; href=&quot;/cdn-cgi/l/email-protection&quot; data-cfemail=&quot;6129080609212d554f50&quot;&gt;[email&amp;#160;protected]&lt;/a&gt;&lt;script data-cfhash='f9e31' type=&quot;text/javascript&quot;&gt;\n/* &lt;![CDATA[ */!function(){try{var t=&quot;currentScript&quot;in document?document.currentScript:function(){for(var t=document.getElementsByTagName(&quot;script&quot;),e=t.length;e--;)if(t[e].getAttribute(&quot;data-cfhash&quot;))return t[e]}();if(t&amp;&amp;t.previousSibling){var e,r,n,i,c=t.previousSibling,a=c.getAttribute(&quot;data-cfemail&quot;);if(a){for(e=&quot;&quot;,r=parseInt(a.substr(0,2),16),n=2;a.length-n;n+=2)i=parseInt(a.substr(n,2),16)^r,e+=String.fromCharCode(i);e=document.createTextNode(e),c.parentNode.replaceChild(e,c)}t.parentNode.removeChild(t);}}catch(u){}}()/* ]]&gt; */&lt;/script&gt;\nFormat settings, CABAC                   : Yes\nFormat settings, ReFrames                : 4 frames\nCodec ID                                 : V_MPEG4/ISO/AVC\nDuration                                 : 1h 14mn\nBit rate                                 : 14.4 Mbps\nWidth                                    : 1 920 pixels\nHeight                                   : 1 038 pixels\nDisplay aspect ratio                     : 1.85:1\nFrame rate                               : 23.976 fps\nColor space                              : YUV\nChroma subsampling                       : 4:2:0\nBit depth                                : 8 bits\nScan type                                : Progressive\nBits/(Pixel*Frame)                       : 0.301\nStream size                              : 7.45 GiB (90%)\nWriting library                          : x264 core 142 r2389+41 02cb608 tMod [8-bit@all X86_64]\nEncoding settings                        : cabac=1 / ref=4 / deblock=1:-3:-3 / analyse=0x3:0x133 / me=umh / subme=11 / psy=1 / fade_compensate=0.00 / psy_rd=1.05:0.00 / mixed_ref=1 / me_range=48 / chroma_me=1 / trellis=2 / 8x8dct=1 / cqm=0 / deadzone=21,11 / fast_pskip=0 / chroma_qp_offset=-2 / threads=24 / lookahead_threads=6 / sliced_threads=0 / nr=0 / decimate=0 / interlaced=0 / bluray_compat=0 / constrained_intra=0 / fgo=0 / bframes=12 / b_pyramid=2 / b_adapt=2 / b_bias=0 / direct=3 / weightb=1 / open_gop=0 / weightp=2 / keyint=250 / keyint_min=23 / scenecut=40 / intra_refresh=0 / rc_lookahead=120 / rc=crf / mbtree=0 / crf=18.8000 / qcomp=0.70 / qpmin=0:0:0 / qpmax=69:69:69 / qpstep=4 / vbv_maxrate=50000 / vbv_bufsize=62500 / crf_max=0.0 / nal_hrd=none / filler=0 / ip_ratio=1.30 / pb_ratio=1.25 / aq=1:0.85 / aq-sensitivity=10.00 / aq-factor=1.00:1.00:1.00 / aq2=0 / aq3=0\nLanguage                                 : English\nDefault                                  : No\nForced                                   : No\n\nAudio #1\nID                                       : 2\nFormat                                   : AC-3\nFormat/Info                              : Audio Coding 3\nMode extension                           : CM (complete main)\nFormat settings, Endianness              : Big\nCodec ID                                 : A_AC3\nDuration                                 : 1h 14mn\nBit rate mode                            : Constant\nBit rate                                 : 640 Kbps\nChannel(s)                               : 6 channels\nChannel positions                        : Front: L C R, Side: L R, LFE\nSampling rate                            : 48.0 KHz\nBit depth                                : 16 bits\nCompression mode                         : Lossy\nStream size                              : 340 MiB (4%)\nTitle                                    : AC3 5.1 - ASM\nLanguage                                 : Portuguese\nDefault                                  : Yes\nForced                                   : Yes\n\nAudio #2\nID                                       : 3\nFormat                                   : AC-3\nFormat/Info                              : Audio Coding 3\nMode extension                           : CM (complete main)\nFormat settings, Endianness              : Big\nCodec ID                                 : A_AC3\nDuration                                 : 1h 14mn\nBit rate mode                            : Constant\nBit rate                                 : 640 Kbps\nChannel(s)                               : 6 channels\nChannel positions                        : Front: L C R, Side: L R, LFE\nSampling rate                            : 48.0 KHz\nBit depth                                : 16 bits\nCompression mode                         : Lossy\nStream size                              : 340 MiB (4%)\nTitle                                    : AC3 5.1 - ASM\nLanguage                                 : English\nDefault                                  : No\nForced                                   : No\n\n\nSEED PLEASE\n\nENJOY...","torrent":{"xt":"urn:btih:63ef15286d7d43277962c770c00c8b9aa0acf3ba","amp;dn":"Not+Safe+for+Work+2014+BluRay+1080p+x264+AC3+HDWinG+DUAL+ASM","amp;tr":["udp%3A%2F%2Ftracker.openbittorrent.com%3A80","udp%3A%2F%2Fopen.demonii.com%3A1337","udp%3A%2F%2Ftracker.coppersurfer.tk%3A6969","udp%3A%2F%2Fexodus.desync.com%3A6969"],"infoHash":"63ef15286d7d43277962c770c00c8b9aa0acf3ba","infoHashBuffer":{"type":"Buffer","data":[99,239,21,40,109,125,67,39,121,98,199,112,192,12,139,154,160,172,243,186]},"announce":[],"urlList":[]}}